<svg xmlns="http://www.w3.org/2000/svg" width="532" height="433" viewBox="0 0 532 433">
  <g id="Groupe_239" data-name="Groupe 239" transform="translate(-200 -381.427)">
    <rect id="Rectangle_148" data-name="Rectangle 148" width="532" height="433" rx="99" transform="translate(200 381.427)" fill="#a9c6d9" opacity="0.648"/>
    <g id="undraw_online_test_re_kyfx" transform="translate(273.175 448.611)">
      <g id="Groupe_240" data-name="Groupe 240">
        <path id="Tracé_163" data-name="Tracé 163" d="M371.432,382.444H13.868A13.884,13.884,0,0,1,0,368.575V325.54H385.3v43.035A13.884,13.884,0,0,1,371.432,382.444Z" transform="translate(0 -115.407)" fill="#e6e6e6"/>
        <rect id="Rectangle_156" data-name="Rectangle 156" width="91.183" height="65.131" transform="translate(147.744 259.838)" fill="#e6e6e6"/>
        <rect id="Rectangle_157" data-name="Rectangle 157" width="102.153" height="8.227" transform="translate(142.26 316.741)" fill="#e6e6e6"/>
        <path id="Tracé_164" data-name="Tracé 164" d="M384.958,228.3H0V9.517A9.528,9.528,0,0,1,9.517,0H375.441a9.528,9.528,0,0,1,9.517,9.517Z" fill="#3f3d56"/>
        <rect id="Rectangle_158" data-name="Rectangle 158" width="366.789" height="206.362" transform="translate(8.913 9.941)" fill="#dee9f0"/>
      </g>
      <g id="Groupe_244" data-name="Groupe 244" transform="translate(5.493 102.218)">
        <path id="uuid-25324785-d0f2-4f1c-ad19-f4bb5410ff47-808" d="M115.646,204.814c2.807-2.32,6.28-2.751,7.756-.965s.4,5.115-2.412,7.435a9.113,9.113,0,0,1-3.846,1.933L105.125,222.9,100.7,217.16l12.318-8.932A9.114,9.114,0,0,1,115.646,204.814Z" transform="translate(-41.194 -174.095)" fill="#ffb6b6"/>
        <path id="Tracé_165" data-name="Tracé 165" d="M16.232,230.56a8.851,8.851,0,0,1,2.762-6.521c3.175-2.711,7.655-1.614,9.227-1.229,3.63.889,3.928,2.446,7.337,4.046,6.378,2.993-1.613,1.461,2.182.5,1.314-.332,20.212-1.643,24.916-4.538,9.149-5.631,15.383-9.046,15.383-9.046l4.075,8.15a72.638,72.638,0,0,1-14.186,14.264c-8.507,6.226-12.761,9.34-19.225,10.542-.557.1-14.247,2.441-25.274-5.8-2.515-1.879-7.124-5.322-7.2-10.373Z" transform="translate(-11.248 -178.003)" fill="#a9c6d9"/>
        <circle id="Ellipse_19" data-name="Ellipse 19" cx="14.196" cy="14.196" r="14.196" transform="translate(3.43 3.437)" fill="#ffb6b6"/>
        <g id="Groupe_241" data-name="Groupe 241" transform="translate(26.948 66.028)">
          <path id="Tracé_166" data-name="Tracé 166" d="M195.88,325.211l-14.62-14.965-7.547,7.872,10.892,14.349,10.8,1.236Z" transform="translate(-94.025 -278.232)" fill="#ffb6b6"/>
          <path id="Tracé_167" data-name="Tracé 167" d="M68.634,279.565a9.962,9.962,0,0,0,6.17-.814,8.438,8.438,0,0,0,2.989-2.886c3.809-5.721,18.43-14.643,31.552-15.192a12.554,12.554,0,0,1,6.705,1.147c2.521,1.314,3.527,3.2,6.726,7.606,1.75,2.412,3.686,4.684,5.457,7.081,10.368,14.03,14.3,15.132,13.9,19.63-.446,4.991-5.828,9.726-9.406,9.179-1.465-.224-2.032-1.243-3.99-3.3-5.739-6.047-8.114-4.93-12.2-9.561-4.771-5.407-4.146-9.891-6.635-10.064-2.308-.161-3.289,3.664-8.216,8.745-2.255,2.325-3.86,3.392-8.752,6.785-19.049,13.215-19.353,14.144-23.2,15.2-1.682.461-13.62,3.734-17.872-1.474-6.655-8.15,9.066-32.714,16.772-32.074Z" transform="translate(-50.259 -260.649)" fill="#2f2e41"/>
          <path id="Tracé_168" data-name="Tracé 168" d="M193.49,335.212c1.075-.483,2.332-1.047,2.737-2.346a3.121,3.121,0,0,0-.45-2.71c-.653-.864-1.619-.977-1.58-1.13.06-.233,2.344-.142,4.852.745a19.414,19.414,0,0,1,5.345,3.08c2.185,1.706,1.891,2.048,3.261,3.032,4.206,3.019,8.151.64,10.427,3.471a4.485,4.485,0,0,1,.883,3.9c-.742,2.519-4.352,3.387-6.326,3.834-4.752,1.078-8.348.2-12.1-.435-12.772-2.152-19.948-.192-20.909-3.151-.182-.56.114-.512,1.1-4.622.972-4.056.94-5.17,1.768-5.495,1.246-.489,2.083,1.735,5.222,2.5a8.9,8.9,0,0,0,5.774-.669Z" transform="translate(-96.104 -284.851)" fill="#2f2e41"/>
        </g>
        <g id="Groupe_242" data-name="Groupe 242" transform="translate(17.582 90.719)">
          <path id="Tracé_169" data-name="Tracé 169" d="M159.9,397.965l-3.694-20.593-10.665,2.276.955,17.99,8.246,7.089Z" transform="translate(-74.672 -326.72)" fill="#ffb6b6"/>
          <path id="Tracé_170" data-name="Tracé 170" d="M67.661,300.048a9.962,9.962,0,0,0,5.562,2.791,8.439,8.439,0,0,0,4.094-.71c6.365-2.595,23.472-1.767,34.638,5.147a12.554,12.554,0,0,1,4.9,4.714c1.348,2.5,1.124,4.626,1.295,10.07.093,2.978.42,5.946.539,8.923.7,17.431,3.334,20.55.476,24.046-3.171,3.879-10.284,4.775-12.937,2.314-1.087-1.008-.984-2.169-1.446-4.975-1.353-8.226-3.945-8.635-4.726-14.762-.911-7.153,2.123-10.512.161-12.053-1.82-1.429-4.779,1.185-11.71,2.622-3.171.658-5.1.639-11.052.7-23.183.238-23.956.836-27.729-.451-1.651-.563-13.366-4.558-13.96-11.256-.93-10.481,25.872-21.978,31.889-17.122Z" transform="translate(-35.749 -298.901)" fill="#2f2e41"/>
          <path id="Tracé_171" data-name="Tracé 171" d="M150.221,405.487c1.161.2,2.518.443,3.582-.4a3.121,3.121,0,0,0,1.15-2.495c-.055-1.081-.791-1.718-.673-1.822.18-.159,2.019,1.2,3.6,3.341a19.412,19.412,0,0,1,2.693,5.55c.85,2.639.415,2.757,1,4.34,1.785,4.86,6.386,5.107,6.679,8.728a4.485,4.485,0,0,1-1.459,3.722c-2.029,1.668-5.5.358-7.387-.379-4.537-1.776-7.019-4.524-9.771-7.157-9.36-8.953-16.4-11.361-15.531-14.348.164-.565.382-.36,3.5-3.208,3.082-2.81,3.681-3.75,4.548-3.554,1.306.3.749,2.605,2.919,5a8.9,8.9,0,0,0,5.153,2.689Z" transform="translate(-70.588 -333.953)" fill="#2f2e41"/>
        </g>
        <path id="Tracé_172" data-name="Tracé 172" d="M28.819,178.7c.553-1.977-.141-2.7.566-3.585,0,0,.285-.357,2.83-1.321h0c-.751-4.357-.189-5.094-.189-5.094a3.194,3.194,0,0,1,2.83-.943c1.869.235,2.2,1.925,3.4,1.887,1.652-.052,3.634-3.36,3.019-6.226-.5-2.338-2.665-4.075-3.207-3.773s-2.473-1.019-3.207-.755c-.5.18-2.861-.06-3.4.189-.584.271-2.258,1.959-2.418,1.746-1.112-1.478-1.088-1.994-1.733-2.312-1.143-.564-2.386.479-4.528,1.509-4.408,2.12-5.7.856-7.736,2.641-1.029.9-1.58,2.626-2.641,6.038-1.484,4.771-2.226,7.156-1.509,9.434.731,2.323,1.807,1.817,3.4,5.094,1.769,3.648,1.159,5.768,2.83,6.6a3.548,3.548,0,0,0,4.151-.943c1.342-2.017-2.126-4.745-.943-7.924.726-1.951,2.966-3.431,4.339-3.019,1.553.466,1.667,3.251,2.641,3.207.834-.037,1.413-2.108,1.509-2.453Z" transform="translate(-9.258 -158.358)" fill="#2f2e41"/>
        <path id="Tracé_173" data-name="Tracé 173" d="M17.495,210.219c2.905-3.257,14.738.114,15.848,5.283.457,2.126-1.23,3.024-.755,5.471.695,3.58,4.628,3.336,7.547,6.981,4.145,5.174-.125,10.232,4.528,18.867a15.287,15.287,0,0,0,3.585,4.905c4.021,3.454,7.763,2.269,9.811,5.471a8.324,8.324,0,0,1,.755,6.038c-.6,2.835-2.242,3.526-3.4,5.849-1.92,3.865.254,6.7.377,11.32.154,5.778-2.916,13.787-9.056,16.414-6.9,2.952-15.218-1.937-19.245-6.792-2.4-2.9-3.1-5.569-4.151-8.868-4.7-14.741-7.351-13.408-10.943-25.093-4.106-13.358-4.914-29.009,0-33.961a14.143,14.143,0,0,0,3.585-4.905c1.536-3.676.209-5.523,1.509-6.981Z" transform="translate(-8.688 -176.288)" fill="#a9c6d9"/>
        <g id="Groupe_243" data-name="Groupe 243" transform="translate(0 46.145)">
          <path id="uuid-91308677-eda7-42a2-9f2e-a07e84038198-809" d="M78.863,320.346c2.252,2.862,2.6,6.343.78,7.777s-5.123.275-7.376-2.588a9.114,9.114,0,0,1-1.841-3.891L61.036,309.4l4.852-3.7,9.625,11.944A9.115,9.115,0,0,1,78.863,320.346Z" transform="translate(-27.131 -256.737)" fill="#ffb6b6"/>
          <path id="Tracé_174" data-name="Tracé 174" d="M25.853,230.046a8.851,8.851,0,0,1,6.948,1.373c3.3,2.555,3.142,7.165,3.086,8.782-.13,3.735-1.593,4.344-2.464,8.008-1.629,6.854,1.473,13.224,3.187,16.744a36.55,36.55,0,0,0,6.294,8.96,79.461,79.461,0,0,0,13.963,11.916l-7.073,6.287s-11.267-3.434-18.9-10.314c-7.831-7.058-19.874-32.029-22.371-38.111-.215-.524,2.83,7.993,8.645-4.483,1.326-2.846,3.757-8.06,8.686-9.161Z" transform="translate(-8.51 -229.847)" fill="#b2c8d6"/>
        </g>
      </g>
      <g id="Groupe_245" data-name="Groupe 245" transform="translate(185.275 95.579)">
        <path id="Tracé_175" data-name="Tracé 175" d="M311.2,195.2l-8.445-4c3.464,4.834,6.449,12.384,8.047,18.392,2.706-5.6,7.067-12.444,11.384-16.534l-8.926,2.3c5.5-26.956,26.187-46.307,49.877-46.307l.335-.974C338.727,148.072,316.815,167.155,311.2,195.2Z" transform="translate(-292.604 -148.072)" fill="#3f3d56"/>
        <path id="Tracé_176" data-name="Tracé 176" d="M344.5,280.2H291.134a4.1,4.1,0,1,1,0-8.209H344.5a4.1,4.1,0,1,1,0,8.209Z" transform="translate(-287.03 -192.003)" fill="#254559"/>
        <path id="Tracé_177" data-name="Tracé 177" d="M454.5,280.2H401.134a4.1,4.1,0,1,1,0-8.209H454.5a4.1,4.1,0,1,1,0,8.209Z" transform="translate(-326.026 -192.003)" fill="#e6e6e6"/>
      </g>
      <g id="Groupe_246" data-name="Groupe 246" transform="translate(200.08 67.37)">
        <path id="Tracé_178" data-name="Tracé 178" d="M407.328,109.113h-51.87a2.371,2.371,0,1,1,0-4.743h51.87a2.371,2.371,0,0,1,0,4.743Z" transform="translate(-325.253 -104.37)" fill="#3f3d56"/>
        <path id="Tracé_179" data-name="Tracé 179" d="M419.875,148.311H312.338a2.371,2.371,0,1,1,0-4.743H419.875a2.371,2.371,0,0,1,0,4.743Z" transform="translate(-309.966 -118.266)" fill="#3f3d56"/>
      </g>
      <path id="Tracé_180" data-name="Tracé 180" d="M36.121,503.963a.766.766,0,0,0,.768.768H374.022a.768.768,0,1,0,0-1.536H36.889A.766.766,0,0,0,36.121,503.963Z" transform="translate(-12.805 -178.388)" fill="#3f3d56"/>
      <path id="Tracé_181" data-name="Tracé 181" d="M144.722,193.23c-.091,0-.183,0-.274-.009a43.864,43.864,0,0,1-34.921-22.042,4.359,4.359,0,0,1,.445-4.969l20.436-24.349a4.453,4.453,0,0,1,3.434-1.554c.9.022,3.043.25,3.459,1.9,2.455,9.745,12.821,21.2,25.289,22.721,1.264.154,2.278,1.281,2.714,3.016a4.3,4.3,0,0,1-.862,3.819l-16.371,19.88a4.328,4.328,0,0,1-3.349,1.589Zm-10.958-51.944a3.428,3.428,0,0,0-2.6,1.2L110.723,166.84a3.376,3.376,0,0,0-.348,3.849,42.88,42.88,0,0,0,34.136,21.555,3.34,3.34,0,0,0,2.8-1.224l16.371-19.88a3.329,3.329,0,0,0,.668-2.957c-.257-1.024-.886-2.16-1.882-2.282-12.879-1.569-23.586-13.4-26.12-23.454-.205-.814-1.441-1.133-2.529-1.158h-.058Z" transform="translate(-38.624 -49.74)" fill="#3f3d56"/>
      <path id="Tracé_182" data-name="Tracé 182" d="M127.985,180.075l14.734-15.023c1.007-1.027-.571-2.607-1.579-1.579L126.406,178.5c-1.007,1.027.571,2.607,1.579,1.579Z" transform="translate(-44.698 -57.834)" fill="#e6e6e6"/>
      <path id="Tracé_183" data-name="Tracé 183" d="M141.743,188.163a58.21,58.21,0,0,0,10.493-12.5c.764-1.222-1.168-2.345-1.928-1.127a56.076,56.076,0,0,1-10.144,12.043c-1.072.961.511,2.536,1.579,1.579h0Z" transform="translate(-49.563 -61.691)" fill="#e6e6e6"/>
      <path id="Tracé_184" data-name="Tracé 184" d="M154.191,195.376a61.655,61.655,0,0,0,9.335-13.615c.644-1.281-1.282-2.413-1.928-1.127a59.475,59.475,0,0,1-8.986,13.163c-.961,1.064.614,2.649,1.579,1.579Z" transform="translate(-53.996 -63.836)" fill="#e6e6e6"/>
      <g id="Groupe_247" data-name="Groupe 247" transform="translate(79.028 75.412)">
        <ellipse id="Ellipse_20" data-name="Ellipse 20" cx="14.854" cy="14.541" rx="14.854" ry="14.541" fill="#254559"/>
        <path id="Tracé_185" data-name="Tracé 185" d="M150.325,140.464l-6.854-16.851a.845.845,0,0,0-1.612,0,74.481,74.481,0,0,0-4.441,18.3c-.121,1.067,1.552,1.059,1.672,0a71.431,71.431,0,0,1,1.218-7.292,17.575,17.575,0,0,0,5.6-.615l2.808,6.9C149.113,141.891,150.731,141.461,150.325,140.464Zm-9.638-7.5q.845-3.457,2.021-6.823l2.562,6.3A16.143,16.143,0,0,1,140.687,132.967Z" transform="translate(-127.742 -119.024)" fill="#fff"/>
      </g>
    </g>
  </g>
</svg>
